<svg
  viewBox="0 0 76.08695652173913 68.36159379010039"
  xmlns="http://www.w3.org/2000/svg"
  fill="#74dbef"
>
  <g transform="translate(-4.2270531400966185, -8.089734505915986) scale(0.8454106280193237)">
    <path d="M83.14,39.475c-0.001-0.166,0.005-0.332,0.006-0.499c-0.302-0.337-0.654-0.618-1.058-0.812  c-0.041,0.419-0.081,0.84-0.111,1.268c-0.097,1.157-0.137,2.396-0.159,3.57c0.01,0.475,0.034,0.95,0.062,1.424  c0.259-0.099,0.512-0.219,0.741-0.387c0.283-0.206,0.516-0.457,0.72-0.729c-0.016-0.118-0.037-0.234-0.053-0.352  C83.176,41.769,83.129,40.646,83.14,39.475z"/>
    <path d="M82.432,27.604c-0.143-0.34-0.287-0.648-0.461-0.914c-0.053-0.096-0.106-0.185-0.163-0.271  c-0.023,0.082-0.038,0.166-0.057,0.249c0.019,0.039,0.038,0.071,0.056,0.111c0.147,0.27,0.268,0.581,0.377,0.918  c0.217,0.604,0.347,1.323,0.425,2.097c0.153,0.161,0.32,0.308,0.501,0.437c-0.011-0.085-0.013-0.176-0.025-0.258  C82.941,29.081,82.729,28.273,82.432,27.604z"/>
    <path d="M91.962,54.969c-0.221-0.065-0.463-0.139-0.728-0.217c-0.255-0.102-0.529-0.211-0.823-0.327  c-0.582-0.253-1.211-0.593-1.854-1.035c-0.326-0.218-0.626-0.492-0.96-0.754c-0.29-0.31-0.641-0.586-0.921-0.949  c-0.229-0.251-0.434-0.543-0.64-0.834c-0.667,0.435-1.362,0.833-2.075,1.199c0.225,0.408,0.454,0.812,0.722,1.179  c0.301,0.476,0.687,0.871,1.014,1.291c0.378,0.373,0.73,0.758,1.109,1.077c0.755,0.647,1.513,1.164,2.215,1.562  c0.356,0.188,0.688,0.372,1.005,0.524c0.321,0.136,0.615,0.258,0.884,0.37c0.531,0.234,0.971,0.331,1.263,0.436  c1.396,0.35,2.397,0.207,2.397,0.207l-1.57-3.491C92.999,55.207,92.391,55.111,91.962,54.969z"/>
    <polygon points="47.463,62.212 40.185,58.008 32.904,53.807 32.904,62.212 32.904,70.616 40.185,66.414"/>
    <path d="M75.365,63.812V28.732H5.002v35.079L5,63.811v26.62h20.53h29.307h20.53v-26.62L75.365,63.812z M21.845,31.564  c1.043,0,1.889,0.846,1.889,1.887c0,1.042-0.846,1.887-1.889,1.887c-1.042,0-1.888-0.845-1.888-1.887  C19.957,32.41,20.803,31.564,21.845,31.564z M16.926,31.564c1.043,0,1.888,0.846,1.888,1.887c0,1.042-0.845,1.887-1.888,1.887  c-1.042,0-1.888-0.845-1.888-1.887C15.038,32.41,15.884,31.564,16.926,31.564z M12.007,31.564c1.042,0,1.888,0.846,1.888,1.887  c0,1.042-0.846,1.887-1.888,1.887c-1.043,0-1.889-0.845-1.889-1.887C10.118,32.41,10.964,31.564,12.007,31.564z M70.249,65.072  V84.76H53.438h-26.51H10.118V65.072v-25.41h60.131V65.072z"/>
    <path d="M73.324,9.569c-10.703,0-19.571,7.766-21.335,17.964h4.431c-0.013-0.565,0.047-1.139,0.231-1.707  c0.878-2.707,3.789-4.19,6.497-3.31c2.215,0.72,3.587,2.8,3.537,5.017h3.075c0.926-0.89,2.179-1.443,3.563-1.443  c2.848,0,5.157,2.308,5.157,5.156c0,1.611-0.757,3.034-1.917,3.979v2.851c0.287-0.364,0.609-0.707,1.002-0.993  c2.307-1.675,5.529-1.164,7.205,1.141c1.671,2.302,1.164,5.529-1.143,7.201c-2.247,1.634-5.357,1.176-7.063-0.983v8.21  C86.994,51.085,95,42.111,95,31.246C95,19.274,85.295,9.569,73.324,9.569z M73.324,24.026c-2.846,0-5.155-2.309-5.155-5.157  c0-2.848,2.31-5.157,5.155-5.157c2.848,0,5.157,2.31,5.157,5.157C78.481,21.718,76.172,24.026,73.324,24.026z M86.688,32.321  c-2.71,0.881-5.618-0.603-6.499-3.311c-0.879-2.709,0.604-5.617,3.312-6.496c2.705-0.88,5.617,0.601,6.496,3.308  C90.878,28.53,89.396,31.442,86.688,32.321z"/>
  </g>
</svg>
