<svg width="429" height="97" viewBox="0 0 429 97" xmlns="http://www.w3.org/2000/svg">
  <!-- Blue graphical elements -->
  <g fill="#74dbef" transform="translate(15.773 11.91) scale(0.845)">
    <path d="M83.14 39.475a6.9 6.9 0 0 1-1.058-.812c-.03.428-.07 1.157-.111 1.268-.02 1.174-.06 2.413-.159 3.57.028.474.052.949.062 1.424.229-.168.482-.288.741-.387.206-.272.437-.523.72-.729a5.6 5.6 0 0 1-.053-.352c-.047 1.121-.094 2.244-.083 3.415z"/>
    <path d="M82.432 27.604a4.5 4.5 0 0 0-.461-.914 3.2 3.2 0 0 0-.163-.271 2.3 2.3 0 0 1-.057.249c.018.04.037.072.056.111.147.27.268.581.377.918.217.604.347 1.323.425 2.097.153.161.32.308.501.437-.011-.085-.013-.176-.025-.258-.109-.727-.321-1.535-.618-2.204z"/>
    <path d="M91.962 54.969c-.221-.065-.463-.139-.728-.217-.255-.102-.529-.211-.823-.327-.582-.253-1.211-.593-1.854-1.035-.326-.218-.626-.492-.96-.754-.29-.31-.641-.586-.921-.949-.229-.251-.434-.543-.64-.834-.667.435-1.362.833-2.075 1.199.225.408.454.812.722 1.179.301.476.687.871 1.014 1.291.378.373.73.758 1.109 1.077.755.647 1.513 1.164 2.215 1.562.356.188.688.372 1.005.524.321.136.615.258.884.37.531.234.971.331 1.263.436 1.396.35 2.397.207 2.397.207l-1.57-3.491c-.437-.146-1.045-.242-1.474-.384z"/>
    <polygon points="47.463 62.212 40.185 58.008 32.904 53.807 32.904 62.212 32.904 70.616 40.185 66.414"/>
    <path d="M75.365 63.812V28.732H5.002v35.079L5 63.811v26.62h20.53h29.307h20.53v-26.62L75.365 63.812zm-53.52-32.248c1.043 0 1.889.846 1.889 1.887 0 1.042-.846 1.887-1.889 1.887-1.042 0-1.888-.845-1.888-1.887.001-1.041.846-1.887 1.888-1.887zm-4.919 0c1.043 0 1.888.846 1.888 1.887 0 1.042-.845 1.887-1.888 1.887-1.042 0-1.888-.845-1.888-1.887.001-1.041.846-1.887 1.888-1.887zm-4.919 0c1.042 0 1.888.846 1.888 1.887 0 1.042-.846 1.887-1.888 1.887-1.043 0-1.889-.845-1.889-1.887 0-1.041.846-1.887 1.889-1.887zm58.242 33.508V84.76H53.438h-26.51H10.118V65.072v-25.41h60.131V65.072z"/>
    <path d="M73.324 9.569c-10.703 0-19.571 7.766-21.335 17.964h4.431a5.4 5.4 0 0 1 .231-1.707c.878-2.707 3.789-4.19 6.497-3.31 2.215.72 3.587 2.8 3.537 5.017h3.075a5.2 5.2 0 0 1 3.563-1.443c2.848 0 5.157 2.308 5.157 5.156 0 1.611-.757 3.034-1.917 3.979v2.851c.287-.364.609-.707 1.002-.993 2.307-1.675 5.529-1.164 7.205 1.141 1.671 2.302 1.164 5.529-1.143 7.201-2.247 1.634-5.357 1.176-7.063-.983v8.21C86.994 51.085 95 42.111 95 31.246 95 19.274 85.295 9.569 73.324 9.569zm0 14.457c-2.846 0-5.155-2.309-5.155-5.157 0-2.848 2.31-5.157 5.155-5.157 2.848 0 5.157 2.31 5.157 5.157 0 2.848-2.309 5.157-5.157 5.157zm13.364 8.295c-2.71.881-5.618-.603-6.499-3.311-.879-2.709.604-5.617 3.312-6.496 2.705-.88 5.617.601 6.496 3.308.881 2.708-.602 5.62-3.309 6.499z"/>
  </g>
  
  <!-- White text elements -->
  <g fill="#fff" transform="translate(113.696 20.622) scale(2.679)">
    <path d="M3.86 19.51q-1.38-.77-2.19-2.09t-.81-2.88.81-2.87 2.18-2.08 2.99-.77q1.74 0 3.15.83t2.25 2.37l-2.7 1.06q-.48-.82-1.18-1.23t-1.52-.41q-1.3 0-2.15.88t-.85 2.22.86 2.22 2.16.88q1.8 0 2.78-1.6l2.54 1q-1.58 3.24-5.32 3.24q-1.62 0-3-.77z"/>
    <path d="M17.18 7.37q-.48.47-1.16.47q-.7 0-1.19-.47t-.49-1.15q0-.66.49-1.13t1.19-.47q.68 0 1.16.47t.48 1.13q0 .68-.48 1.15z"/>
    <path d="M14.52 9.02l3 0 0 10.98l-3 0 0-10.98z"/>
    <path d="M29.69 10.02q1.03 1.22 1.03 3.48l0 6.5l-3.06 0 0-6.5q0-2.22-2.12-2.22q-.82 0-1.48.65t-.62 2.25l0 5.82l-2.98 0 0-11l2.98 0 0 .98q.54-.54 1.36-.86t1.58-.32q2.28 0 3.31 1.22z"/>
    <path d="M36.45 19.74q-1.37-.54-2.35-1.83t-.98-3.37.99-3.36 2.37-1.82 2.62-.54q1.44 0 2.74.64t2.13 1.88.87 2.94q0 .52-.02.9t-.04.48l-8.68 0q.24 1.16 1.2 1.58t1.8.42q1.08 0 1.72-.39t1.1-.89l2.32 1.34q-1.88 2.56-5.14 2.56q-1.28 0-2.65-.54zm.61-7.69q-.78.61-.88 1.49l5.5 0q-.06-.52-.4-1t-.91-.79-1.29-.31q-1.24 0-2.02.61z"/>
    <path d="M45.44 9.04l3.32 0 2.56 5.38 2.56-5.38 3.34 0-5.9 11.44z"/>
    <path d="M61.17 19.74q-1.37-.54-2.35-1.83t-.98-3.37.99-3.36 2.37-1.82 2.62-.54q1.44 0 2.74.64t2.13 1.88.87 2.94q0 .52-.02.9t-.04.48l-8.68 0q.24 1.16 1.2 1.58t1.8.42q1.08 0 1.72-.39t1.1-.89l2.32 1.34q-1.88 2.56-5.14 2.56q-1.28 0-2.65-.54zm.61-7.69q-.78.61-.88 1.49l5.5 0q-.06-.52-.4-1t-.91-.79-1.29-.31q-1.24 0-2.02.61z"/>
    <path d="M77.22 11.87q-.86.21-1.58.99t-.72 2.28l0 4.86l-2.98 0 0-11l2.98 0 0 1.46q.74-.98 1.81-1.33t1.95-.33l0 2.92q-.6-.06-1.46.15z"/>
    <path d="M79.84 18.54l1.56-2.08q.72.5 1.68.84t1.88.34q.68 0 1.13-.28t.45-.7-.51-.59-.99-.24-.62-.09q-1.2-.2-2.07-.48t-1.58-1-.71-1.98q0-2.08 1.51-2.78t3.03-.7q1.3 0 2.4.38t2.18 1.2l-1.56 2.04q-.78-.46-1.54-.74t-1.58-.28q-.5 0-.97.22t-.47.6q0 .48.65.68t1.43.3q1.4.24 2.24.5t1.49.97.65 2.01q0 1.72-1.18 2.65t-3.34.93q-3 0-5.16-1.72z"/>
    <path d="M94.71 19.74q-1.37-.54-2.35-1.83t-.98-3.37.99-3.36 2.37-1.82 2.62-.54q1.44 0 2.74.64t2.13 1.88.87 2.94q0 .52-.02.9t-.04.48l-8.68 0q.24 1.16 1.2 1.58t1.8.42q1.08 0 1.72-.39t1.1-.89l2.32 1.34q-1.88 2.56-5.14 2.56q-1.28 0-2.65-.54zm.61-7.69q-.78.61-.88 1.49l5.5 0q-.06-.52-.4-1t-.91-.79-1.29-.31q-1.24 0-2.02.61z"/>
  </g>
</svg>